<svg width="94" height="94" viewBox="0 0 94 94" fill="none" xmlns="http://www.w3.org/2000/svg">
<rect width="94" height="94" rx="15.9194" fill="#FF3C60"/>
<path d="M26.3078 55.8412C26.0814 55.8412 25.9035 55.7765 25.7742 55.6471C25.6448 55.5501 25.6448 55.4692 25.7742 55.4045C26.4857 55.2751 27.1003 55.0164 27.6178 54.6283C28.1353 54.2078 28.5558 53.6903 28.8792 53.0757C29.5584 51.9437 30.2215 50.8117 30.8684 49.6796C31.5152 48.5152 32.146 47.3508 32.7605 46.1865L37.418 37.5991C38.162 36.273 38.8088 34.9954 39.3587 33.7663C39.9409 32.5372 40.3937 31.6478 40.7171 31.0979C40.9435 30.6775 41.3317 30.3055 41.8815 29.9821C42.4637 29.6263 43.0297 29.3514 43.5796 29.1573C43.3855 29.1573 43.1915 29.1573 42.9974 29.1573C42.8033 29.1249 42.5931 29.1088 42.3667 29.1088C41.364 29.1088 40.2643 29.1735 39.0676 29.3028C37.9032 29.3999 36.755 29.5616 35.6229 29.788C34.5232 30.0144 33.5529 30.3217 32.712 30.7098C31.871 31.0979 31.305 31.5669 31.0139 32.1168C30.8845 32.4079 30.7713 32.699 30.6743 32.9901C30.5773 33.2812 30.5288 33.5723 30.5288 33.8634C30.5288 34.6073 30.7875 35.1409 31.305 35.4644C31.3374 35.4644 31.3535 35.4967 31.3535 35.5614C31.3535 35.6261 31.2888 35.6908 31.1595 35.7555C31.0624 35.8202 30.9654 35.8363 30.8684 35.804C30.5773 35.6423 30.2215 35.2541 29.801 34.6396C29.3805 33.9927 29.1218 33.4591 29.0248 33.0386C28.9277 32.6504 28.8792 32.2947 28.8792 31.9712C28.8792 31.1303 29.1541 30.4834 29.704 30.0306C30.2538 29.5454 30.9492 29.2058 31.7902 29.0117C32.6311 28.7853 33.4882 28.656 34.3615 28.6236C35.2672 28.5589 36.0596 28.5266 36.7388 28.5266C37.7738 28.5266 39.0029 28.5266 40.426 28.5266C41.8492 28.4942 43.1591 28.4781 44.3558 28.4781C44.6469 28.4781 44.9704 28.4781 45.3262 28.4781C45.682 28.4457 46.0539 28.4295 46.442 28.4295C47.3153 28.4295 48.221 28.4781 49.1589 28.5751C50.0969 28.6721 50.954 28.8824 51.7303 29.2058C52.5066 29.5292 53.1049 30.0306 53.5254 30.7098C53.9459 31.4214 54.1561 32.1976 54.1561 33.0386C54.1561 33.8472 53.9944 34.6558 53.6709 35.4644C53.3475 36.273 52.9594 36.9684 52.5066 37.5506C52.2155 37.9064 51.8758 38.2621 51.4877 38.6179C51.0996 38.9737 50.6629 39.3133 50.1778 39.6368C49.6926 39.9602 49.1589 40.2675 48.5768 40.5586C48.0269 40.8173 47.3638 41.0276 46.5876 41.1893C46.5552 41.1893 46.5229 41.2378 46.4906 41.3348C46.4906 41.4319 46.5229 41.4804 46.5876 41.4804C46.7493 41.5127 47.0242 41.5612 47.4124 41.6259C47.8328 41.6583 48.2048 41.7068 48.5282 41.7715C49.6603 41.9979 50.5983 42.4831 51.3422 43.227C52.1184 43.9385 52.5066 44.9089 52.5066 46.1379C52.5066 47.5287 52.1346 48.8063 51.3907 49.9707C50.6791 51.1351 49.7573 52.1378 48.6253 52.9787C47.4932 53.7873 46.3127 54.418 45.0836 54.8708C43.5311 55.453 41.7521 55.7441 39.7468 55.7441C38.5501 55.7441 37.3048 55.6309 36.0111 55.4045C34.7173 55.1781 33.5368 54.79 32.4694 54.2401C32.243 54.1108 32.0166 54.0137 31.7902 53.949C31.5638 53.852 31.3212 53.8035 31.0624 53.8035C30.6096 53.8035 30.1244 53.9329 29.6069 54.1916C29.2835 54.321 28.863 54.5636 28.3455 54.9194C27.828 55.2751 27.2458 55.5662 26.5989 55.7926C26.5343 55.825 26.4372 55.8412 26.3078 55.8412ZM38.1943 55.0649C39.0352 55.0649 39.8762 54.984 40.7171 54.8223C41.5581 54.6283 42.3182 54.4018 42.9974 54.1431C44.1941 53.6903 45.2938 53.0596 46.2965 52.251C47.2992 51.41 48.1078 50.4235 48.7223 49.2915C49.3692 48.1271 49.6926 46.8333 49.6926 45.4102C49.6926 44.4722 49.45 43.7606 48.9649 43.2755C48.4797 42.758 47.8652 42.4022 47.1213 42.2081C46.3774 42.0141 45.6011 41.917 44.7925 41.917C44.178 41.917 43.5958 41.9494 43.0459 42.0141C42.4961 42.0788 41.9947 42.1596 41.5419 42.2566C40.6363 42.4184 39.8277 42.5963 39.1161 42.7903C38.9867 42.7256 39.0029 42.6124 39.1646 42.4507C39.3263 42.2566 39.5366 42.0464 39.7953 41.82C40.0864 41.5936 40.3128 41.4157 40.4746 41.2863C40.5392 41.2216 40.6686 41.1246 40.8627 40.9952C41.0891 40.8335 41.267 40.7526 41.3964 40.7526C42.9812 40.7526 44.3882 40.6556 45.6173 40.4615C46.8787 40.2675 47.9622 39.7985 48.8678 39.0546C49.7735 38.2783 50.5174 37.0816 51.0996 35.4644C51.3907 34.6234 51.5362 33.7987 51.5362 32.9901C51.5362 32.0521 51.3098 31.2435 50.857 30.5643C50.4042 29.8527 49.6765 29.4322 48.6738 29.3028C48.5444 29.2705 48.3989 29.2543 48.2371 29.2543C48.0754 29.2543 47.9137 29.2543 47.752 29.2543C47.1374 29.2543 46.4582 29.3352 45.7143 29.4969C45.0027 29.6586 44.4691 29.9659 44.1133 30.4187C43.3047 31.4861 42.5284 32.699 41.7845 34.0574C41.0406 35.3835 40.329 36.742 39.6498 38.1328C38.9706 39.4912 38.3237 40.7688 37.7091 41.9655C36.9652 43.421 36.2051 44.8927 35.4289 46.3805C34.6526 47.8683 33.8925 49.3723 33.1486 50.8925C32.9546 51.2806 32.8575 51.6526 32.8575 52.0084C32.8575 52.6553 33.2618 53.286 34.0704 53.9005C34.6203 54.321 35.251 54.6283 35.9626 54.8223C36.7065 54.984 37.4504 55.0649 38.1943 55.0649Z" fill="#232323"/>
<path d="M48.1159 73.4889C47.1132 73.4889 46.1591 73.1978 45.2534 72.6156C44.3478 72.0658 43.6686 71.2086 43.2157 70.0443C43.054 69.6238 42.9408 69.171 42.8761 68.6858C42.8114 68.2006 42.7791 67.7478 42.7791 67.3274V66.8907C42.7791 66.632 42.7953 66.3732 42.8276 66.1145C42.8923 65.8557 43.0379 65.7263 43.2643 65.7263C43.3289 65.7263 43.3613 65.7587 43.3613 65.8234C43.3613 66.0174 43.3451 66.2277 43.3128 66.4541C43.3128 66.6481 43.3128 66.8422 43.3128 67.0363C43.3128 68.5564 43.6847 69.7046 44.4286 70.4809C45.2049 71.2572 46.1591 71.6453 47.2911 71.6453C48.4231 71.6453 49.5228 71.3219 50.5902 70.675C51.6576 70.0281 52.644 69.2033 53.5497 68.2006C54.4553 67.198 55.3124 65.9527 56.121 64.4649C56.9296 62.9771 57.6897 61.4084 58.4013 59.7588C59.1129 58.0769 59.7759 56.4274 60.3905 54.8102C61.0373 53.193 61.6357 51.7537 62.1856 50.4923C62.509 49.7483 63.1074 49.1176 63.9806 48.6001C64.8863 48.0826 65.7434 47.7107 66.552 47.4843C66.3256 47.4519 66.0992 47.4357 65.8728 47.4357C65.6787 47.4034 65.4846 47.3711 65.2906 47.3387L58.4498 46.6595C57.9323 46.5948 57.2531 46.5463 56.4121 46.5139C55.5712 46.4816 54.6817 46.4654 53.7437 46.4654C52.4823 46.4654 51.1886 46.5463 49.8625 46.708C48.5363 46.8374 47.3396 47.08 46.2723 47.4357C45.2049 47.7915 44.4286 48.3252 43.9435 49.0368C43.6847 49.4249 43.5554 49.8777 43.5554 50.3952C43.5554 50.9127 43.7009 51.3979 43.992 51.8507C44.2831 52.3035 44.6551 52.6593 45.1079 52.9181C45.1726 52.9828 45.2049 53.0313 45.2049 53.0636C45.2049 53.1606 45.124 53.2415 44.9623 53.3062C44.8329 53.3709 44.6874 53.3709 44.5257 53.3062C44.2346 53.1445 43.895 52.8695 43.5068 52.4814C43.1187 52.0933 42.7629 51.689 42.4395 51.2685C42.1484 50.8157 41.9382 50.4437 41.8088 50.1526C41.6147 49.6028 41.5177 49.1176 41.5177 48.6972C41.5177 47.9209 41.7764 47.2902 42.2939 46.805C42.8438 46.2875 43.5392 45.8994 44.3801 45.6406C45.2534 45.3495 46.1752 45.1555 47.1456 45.0585C48.1482 44.9291 49.1024 44.8644 50.008 44.8644C50.3638 44.8644 50.7034 44.8644 51.0268 44.8644C51.3503 44.8644 51.6576 44.8806 51.9486 44.9129C52.9837 44.9776 54.0672 45.0423 55.1992 45.107C56.3313 45.1717 57.4795 45.2525 58.6439 45.3495L66.3579 45.9803C66.8754 46.0126 67.6517 46.0773 68.6867 46.1743C69.7541 46.239 70.8376 46.2714 71.9373 46.2714C73.134 46.2714 74.2337 46.2067 75.2364 46.0773C76.2391 45.9156 76.9021 45.6406 77.2256 45.2525C77.2902 45.1231 77.3873 45.0908 77.5166 45.1555C77.646 45.2202 77.6784 45.301 77.6137 45.3981C77.5166 45.7862 77.3873 46.0773 77.2256 46.2714C77.0638 46.5948 76.8374 46.9506 76.5463 47.3387C76.2876 47.7268 75.8833 47.9856 75.3334 48.115C75.204 48.1473 75.0262 48.1797 74.7997 48.212C74.5733 48.212 74.3308 48.212 74.072 48.212C73.3281 48.212 72.4225 48.1635 71.3551 48.0665C70.3201 47.9371 69.3013 47.8077 68.2986 47.6783C67.3283 47.84 66.4873 48.2929 65.7757 49.0368C65.0642 49.7807 64.4496 50.6378 63.9321 51.6081C63.4146 52.5461 62.9618 53.4356 62.5737 54.2765C61.8621 55.732 61.2637 57.0743 60.7786 58.3034C60.3258 59.5001 59.7597 60.8262 59.0805 62.2817C58.4013 63.7695 57.6897 65.2412 56.9458 66.6966C56.2019 68.1198 55.2963 69.4135 54.2289 70.5779C53.4203 71.4512 52.4823 72.1466 51.415 72.6641C50.3476 73.214 49.2479 73.4889 48.1159 73.4889Z" fill="#232323"/>
</svg>
